<svg width="50" height="50" fill="none" xmlns="http://www.w3.org/2000/svg"><rect width="50" height="50" rx="6" fill="#EEFEEB"/><path fill="#7AD28D" d="M9 10h30v23H9z"/><path d="M40.042 6H9.958C7.772 6 6 7.763 6 9.937v30.126C6 42.237 7.772 44 9.958 44h30.084C42.228 44 44 42.237 44 40.063V9.937C44 7.763 42.228 6 40.042 6zm-18.65 14.136l-.068.067-.078.056c-.437.313-.937.677-1.526 1.115-.645.478-1.21.9-1.73 1.288-.602.448-1.182.878-1.725 1.28-.549.404-1.068.782-1.542 1.122l-.093.066-.103.048a2.83 2.83 0 01-1.18.271c-.615 0-1.163-.211-1.584-.612a2.116 2.116 0 01-.668-1.573c0-.546.179-1.064.53-1.54l.105-.142.14-.105c.364-.271.794-.589 1.278-.942.49-.36.977-.721 1.446-1.075a130.75 130.75 0 011.475-1.097l.02-.015c-.459-.35-.94-.722-1.429-1.105-.503-.393-.996-.774-1.464-1.133a45.575 45.575 0 01-1.204-.947l-.092-.075-.075-.091c-.412-.504-.62-1.056-.62-1.642 0-.604.223-1.146.647-1.568a2.224 2.224 0 011.604-.644c.313 0 .648.07 1.026.214l.097.037.09.053c.126.076.304.203.759.578.305.251.681.546 1.121.878.457.346.947.727 1.456 1.131.494.394.968.762 1.41 1.095.463.352.861.659 1.183.914l.611.487c.8.628.967 1.366.967 1.874 0 .434-.135 1.086-.784 1.732zm15.242 9.622c-.343.375-.817.639-1.41.787l-.142.035H25.057l-.054-.005c-.898-.081-1.414-.485-1.689-.81-.37-.438-.564-.95-.564-1.479 0-.576.222-1.112.643-1.55.414-.43.985-.678 1.698-.74l.05-.004h10.03l.149.04c.61.158 1.084.46 1.411.894.322.425.484.883.484 1.36a2.16 2.16 0 01-.581 1.472z" fill="#042024"/></svg>
