<svg width="50" height="50" viewBox="0 0 50 50" fill="none" xmlns="http://www.w3.org/2000/svg">
<rect width="50" height="50" rx="6" fill="#E7EFF4"/>
<path d="M21.186 21.941C20.103 21.941 19.248 22.891 19.248 24.05C19.248 25.209 20.122 26.159 21.186 26.159C22.269 26.159 23.124 25.209 23.124 24.05C23.143 22.891 22.269 21.941 21.186 21.941ZM28.121 21.941C27.038 21.941 26.183 22.891 26.183 24.05C26.183 25.209 27.057 26.159 28.121 26.159C29.204 26.159 30.059 25.209 30.059 24.05C30.059 22.891 29.204 21.941 28.121 21.941Z" fill="#7289DA"/>
<path d="M37.355 6H11.895C9.748 6 8 7.748 8 9.914V35.602C8 37.768 9.748 39.516 11.895 39.516H33.441L32.434 36.001L34.866 38.262L37.165 40.39L41.25 44V9.914C41.25 7.748 39.502 6 37.355 6ZM30.021 30.814C30.021 30.814 29.337 29.997 28.767 29.275C31.256 28.572 32.206 27.014 32.206 27.014C31.427 27.527 30.686 27.888 30.021 28.135C29.071 28.534 28.159 28.8 27.266 28.952C25.442 29.294 23.77 29.199 22.345 28.933C21.262 28.724 20.331 28.42 19.552 28.116C19.115 27.945 18.64 27.736 18.165 27.47C18.108 27.432 18.051 27.413 17.994 27.375C17.956 27.356 17.937 27.337 17.918 27.318C17.576 27.128 17.386 26.995 17.386 26.995C17.386 26.995 18.298 28.515 20.711 29.237C20.141 29.959 19.438 30.814 19.438 30.814C15.239 30.681 13.643 27.926 13.643 27.926C13.643 21.808 16.379 16.849 16.379 16.849C19.115 14.797 21.718 14.854 21.718 14.854L21.908 15.082C18.488 16.07 16.911 17.571 16.911 17.571C16.911 17.571 17.329 17.343 18.032 17.02C20.065 16.127 21.68 15.88 22.345 15.823C22.459 15.804 22.554 15.785 22.668 15.785C23.827 15.633 25.138 15.595 26.506 15.747C28.311 15.956 30.249 16.488 32.225 17.571C32.225 17.571 30.724 16.146 27.494 15.158L27.76 14.854C27.76 14.854 30.363 14.797 33.099 16.849C33.099 16.849 35.835 21.808 35.835 27.926C35.835 27.926 34.22 30.681 30.021 30.814V30.814Z" fill="#7289DA"/>
</svg>
