<svg width="50" height="50" fill="none" xmlns="http://www.w3.org/2000/svg"><rect width="50" height="50" rx="6" fill="#fff"/><path d="M38.169 13.401a31.335 31.335 0 00-7.735-2.399.117.117 0 00-.125.059c-.334.594-.704 1.369-.963 1.978a28.927 28.927 0 00-8.687 0 20.018 20.018 0 00-.978-1.978.122.122 0 00-.124-.059 31.248 31.248 0 00-7.735 2.399.11.11 0 00-.051.044c-4.926 7.36-6.276 14.539-5.614 21.629a.13.13 0 00.05.089c3.25 2.387 6.398 3.836 9.488 4.796a.123.123 0 00.133-.044 22.524 22.524 0 001.942-3.157.12.12 0 00-.066-.168 20.746 20.746 0 01-2.964-1.412.122.122 0 01-.012-.202c.199-.15.398-.305.588-.462a.117.117 0 01.123-.016c6.219 2.839 12.952 2.839 19.097 0a.117.117 0 01.125.015c.19.157.39.313.59.463a.122.122 0 01-.01.202c-.947.553-1.931 1.02-2.966 1.411a.121.121 0 00-.065.169 25.3 25.3 0 001.94 3.156.12.12 0 00.133.045c3.105-.96 6.254-2.41 9.504-4.796a.122.122 0 00.05-.088c.792-8.197-1.328-15.317-5.619-21.629a.096.096 0 00-.05-.045zm-19.47 17.356c-1.873 0-3.416-1.72-3.416-3.83 0-2.111 1.513-3.83 3.415-3.83 1.918 0 3.445 1.734 3.415 3.83 0 2.11-1.512 3.83-3.415 3.83zm12.626 0c-1.872 0-3.415-1.72-3.415-3.83 0-2.111 1.513-3.83 3.415-3.83 1.917 0 3.445 1.734 3.415 3.83 0 2.11-1.498 3.83-3.415 3.83z" fill="#5865F2"/></svg>
