<svg width="50" height="50" fill="none" xmlns="http://www.w3.org/2000/svg"><rect width="50" height="50" rx="6" fill="#25293E"/><path fill-rule="evenodd" clip-rule="evenodd" d="M19.443 21.173c-.07-.277-.43-.24-.43-.24l-2.807.011h-3.104c-.559 0-1.722-.427-2.082-.886-.371-.474-.784-1.015-1.017-1.559h8.503c.25 0 .424.107.424.107-.252-1.202-.517-2.525-.631-3.069-.033-.152-.2-.225-.447-.225H9.81c-1.079 0-3.098-.787-2.74-2.373-.724.673-1.025 1.553-1.065 2.477-.044 1.032.212 2.132.619 3.043 2.381 5.335 7.225 6.088 7.234 6.111-.228-.284-.282-.476-.343-.777-.15-.758 2.634-.657 3.257-.657h2.763c.135 0 .267.044.376.123-.178-.848-.29-1.256-.468-2.086zm2.925 13.765c0-.177-.545-1.691-.744-2.266-.148-.04-.313-.128-.513-.09-.08.015-.857.15-1.066.197-.151.057-.234.27-.329.34.003.595.168 2.112.217 2.326.191.11.462.264.87.28 0 0 .178.32.655.73 0 0 .322-.592.26-.949.23-.18.526-.27.65-.568zm-6.552-20.024l.53-.334c.462-.089.688-.148.688-.148.266.06.56.118.56.118a.57.57 0 00.226-.128c-.059-.394-.167-.827-.167-.827l-.835-.295-.746.197-.587.497.16.873.171.047z" fill="#E2BA5A"/><path fill-rule="evenodd" clip-rule="evenodd" d="M18.416 18.4c-.533-2.47-.916-4.25-.94-4.37a.153.153 0 00-.075-.1l.036-.01L16.074 12l-.331 2.375h.001a.198.198 0 00-.017.136c.056.232.395 1.76.865 3.89h1.824zm3.522 16.38c-.058-.316-1.309-6.121-2.471-11.512-.131-.076-.367-.167-.745-.167-.522 0-.902.17-1.022.317 1.154 5.225 2.417 10.942 2.604 11.69.13.524 1.743.262 1.634-.328zm-3.452-16.058c-.116-.08-.362-.199-.796-.199-.5 0-.87.156-1.005.297l.943 4.271h1.8l-.942-4.369zM43.995 15.416c-.04-.924-.34-1.804-1.064-2.477.357 1.586-1.662 2.373-2.74 2.373h-8.043c-.248 0-.414.072-.447.225-.114.544-.38 1.867-.631 3.07 0 0 .174-.108.425-.108h8.502c-.233.544-.645 1.085-1.018 1.56-.36.458-1.522.885-2.081.885h-3.104l-2.806-.01s-.362-.038-.43.239c-.18.83-.292 1.238-.47 2.086.11-.08.242-.122.377-.123h2.763c.623 0 3.407-.102 3.256.657-.06.301-.114.493-.342.777.008-.023 4.853-.777 7.234-6.111.407-.911.663-2.01.62-3.043zm-15.23 17.18c-.2-.038-.454.038-.602.078-.174.503-.773 2.084-.773 2.264.125.298.42.388.65.569-.062.356.26.948.26.948.478-.41.655-.73.655-.73.409-.015.68-.17.87-.28.05-.214.304-1.694.307-2.29-.095-.069-.301-.32-.453-.378-.208-.047-.834-.166-.914-.18zm4.076-18.07c.46.094.692.126.692.126.223.155.473.322.473.322a.571.571 0 00.257-.032c.095-.387.16-.829.16-.829l-.506-.524-1.065-.149-.586.215-.184.87.142.108.617-.107z" fill="#E2BA5A"/><path fill-rule="evenodd" clip-rule="evenodd" d="M31.165 23.101c-.362 0-.593.083-.727.157a2900.164 2900.164 0 00-2.474 11.522c-.109.59 1.504.851 1.635.327.186-.747 1.447-6.452 2.6-11.673-.104-.15-.493-.333-1.034-.333zm1.031-4.578c-.411 0-.654.108-.777.187-.286 1.327-.61 2.834-.945 4.381h1.8l.94-4.257c-.124-.144-.502-.311-1.018-.311zm2.004-4.2L33.798 12l-1.265 1.912c-.059.027-.097.066-.107.118-.024.12-.408 1.9-.94 4.37h1.823c.47-2.13.81-3.657.866-3.89.016-.07-.009-.139-.063-.204l.088.016z" fill="#E2BA5A"/><path d="M27.233 13.074s.315.652.196 1.154l-2.457 10.39-2.458-10.39c-.119-.502.196-1.154.196-1.154l-3.882.812s.95.475 1.127 1.11c.155.554 2.86 14.458 3.66 17.986.117.514-.318 1.125-.318 1.125l1.674 4.05 1.675-4.05s-.435-.61-.318-1.125c.8-3.529 3.505-17.432 3.66-17.986.178-.635 1.127-1.11 1.127-1.11l-3.882-.812z" fill="#E2BA5A"/></svg>
