<svg width="50" height="50" fill="none" xmlns="http://www.w3.org/2000/svg"><rect width="50" height="50" rx="6" fill="#E4E2FD"/><path d="M25 44c10.493 0 19-8.507 19-19S35.493 6 25 6 6 14.507 6 25s8.507 19 19 19z" fill="#639"/><path d="M14.414 35.586c-2.85-2.85-4.343-6.65-4.343-10.315L24.864 39.93c-3.8-.136-7.6-1.493-10.45-4.343zm13.843 3.935L10.48 21.743C11.97 15.093 17.943 10.07 25 10.07c5.021 0 9.364 2.443 12.079 6.108l-2.036 1.764C32.736 14.82 29.07 12.786 25 12.786c-5.293 0-9.771 3.393-11.536 8.143l15.607 15.607c3.936-1.357 6.922-4.75 7.872-8.822h-6.514V25h9.5c0 7.057-5.022 13.029-11.672 14.521z" fill="#fff"/></svg>
