<svg width="50" height="50" fill="none" xmlns="http://www.w3.org/2000/svg"><rect width="50" height="50" rx="6" fill="#FAF9FB"/><path fill-rule="evenodd" clip-rule="evenodd" d="M10.47 7.108C15.053 8.861 22.066 9.385 25 9.428v20.235c-.605-.3-2.18-.902-3.632-.902.512-2.148 1.006-7.27-1.118-10.569-1.257-.258-4.582-.464-7.824.773.932.946 3.772 2.836 7.684 2.836.56 1.074 1.453 4.227.56 8.248-.048.258.139.774 1.256.774 1.398 0 2.515.386 2.515 2.449v4.253c-.506.467-2.522 1.521-6.56 2.043-2.065-3.936-5.511-6.37-7.41-7.199.605-2.105.894-7.63-2.795-12.888-3.688-5.258.326-10.44 2.794-12.373zm8.25 34.37c1.208-.453 3.625-1.118 6.28-1.118V45c-2.682 0-4.843-.43-5.588-.773a14.527 14.527 0 00-.692-2.75zm20.81-34.37C34.946 8.861 27.933 9.385 25 9.428v20.235c.605-.3 2.18-.902 3.632-.902-.512-2.148-1.006-7.27 1.118-10.569 1.257-.258 4.582-.464 7.824.773-.932.946-3.773 2.836-7.684 2.836-.56 1.074-1.453 4.227-.56 8.248.047.258-.139.774-1.256.774-1.398 0-2.515.386-2.515 2.449v4.253c.506.467 2.522 1.521 6.56 2.043 2.065-3.936 5.511-6.37 7.41-7.199-.605-2.105-.894-7.63 2.794-12.888 3.689-5.258-.325-10.44-2.794-12.373zm-8.25 34.37c-1.209-.453-3.625-1.118-6.28-1.118V45c2.682 0 4.843-.43 5.588-.773.146-.973.384-1.89.692-2.75z" fill="url(#paint0_linear)"/><defs><linearGradient id="paint0_linear" x1="25" y1="7.108" x2="25" y2="45" gradientUnits="userSpaceOnUse"><stop stop-color="#6182ED"/><stop offset="1" stop-color="#29357F"/></linearGradient></defs></svg>
