<svg width="50" height="50" fill="none" xmlns="http://www.w3.org/2000/svg"><rect width="50" height="50" rx="6" fill="#FBF7E7"/><path d="M44 6H6v38h38V6z" fill="#F7DF1E"/><path d="M31.526 35.688c.766 1.25 1.762 2.168 3.523 2.168 1.48 0 2.425-.74 2.425-1.761 0-1.225-.971-1.658-2.6-2.37l-.893-.384c-2.577-1.098-4.288-2.473-4.288-5.38 0-2.678 2.04-4.717 5.23-4.717 2.27 0 3.902.79 5.078 2.86l-2.78 1.785c-.613-1.098-1.273-1.53-2.299-1.53-1.046 0-1.709.663-1.709 1.53 0 1.07.664 1.505 2.196 2.168l.893.382c3.034 1.302 4.747 2.628 4.747 5.61 0 3.215-2.526 4.976-5.918 4.976-3.316 0-5.458-1.58-6.507-3.651l2.902-1.686zm-12.614.31c.561.994 1.071 1.836 2.298 1.836 1.173 0 1.913-.46 1.913-2.244V23.448h3.571v12.19c0 3.698-2.168 5.38-5.332 5.38-2.859 0-4.515-1.48-5.357-3.261l2.907-1.76z" fill="#000"/></svg>
