<svg width="50" height="50" fill="none" xmlns="http://www.w3.org/2000/svg"><rect width="50" height="50" rx="6" fill="#FAF9FB"/><path d="M26.622 18.361v8.633l3.171-3.17 1.6 1.6-5.86 5.862-5.936-5.936 1.6-1.6 3.161 3.16v-8.549h2.264zM8.264 30.846V24.16l4.093 4.094 4.125-4.124v6.649h2.263V18.665l-6.388 6.388L6 18.695v12.151h2.264z" fill="#000"/><path d="M42.4 18l1.6 1.6-4.794 4.795 4.647 4.647-1.601 1.601-4.647-4.647-4.648 4.647-1.6-1.6 4.647-4.648-4.795-4.794L32.81 18l4.796 4.794L42.4 18z" fill="#F9AC00"/></svg>
