<svg width="50" height="50" fill="none" xmlns="http://www.w3.org/2000/svg"><rect width="50" height="50" rx="6" fill="#fff"/><path d="M24.569 6c-1.55.008-3.03.14-4.332.37-3.837.678-4.533 2.096-4.533 4.712v3.456h9.065v1.151H12.302c-2.635 0-4.942 1.584-5.664 4.596-.832 3.454-.87 5.608 0 9.214.645 2.684 2.184 4.596 4.818 4.596h3.117v-4.142c0-2.992 2.59-5.631 5.664-5.631h9.055c2.52 0 4.532-2.076 4.532-4.607v-8.633c0-2.456-2.072-4.302-4.532-4.712A28.276 28.276 0 0024.569 6zm-4.903 2.78c.936 0 1.701.776 1.701 1.732 0 .952-.765 1.722-1.7 1.722-.94 0-1.702-.77-1.702-1.722 0-.956.761-1.733 1.701-1.733z" fill="url(#paint0_linear)"/><path d="M34.955 15.69v4.025c0 3.121-2.646 5.748-5.663 5.748h-9.055c-2.48 0-4.533 2.123-4.533 4.607v8.632c0 2.457 2.136 3.902 4.533 4.607 2.87.844 5.621.996 9.055 0 2.282-.661 4.532-1.99 4.532-4.607v-3.455H24.77v-1.152h13.587c2.635 0 3.617-1.837 4.533-4.596.947-2.84.906-5.57 0-9.213-.651-2.623-1.895-4.597-4.533-4.597h-3.402zm-5.093 21.86c.94 0 1.701.77 1.701 1.723 0 .955-.761 1.732-1.7 1.732-.937 0-1.702-.777-1.702-1.732 0-.953.765-1.723 1.701-1.723z" fill="url(#paint1_linear)"/><defs><linearGradient id="paint0_linear" x1="6" y1="6" x2="26.904" y2="23.813" gradientUnits="userSpaceOnUse"><stop stop-color="#5A9FD4"/><stop offset="1" stop-color="#306998"/></linearGradient><linearGradient id="paint1_linear" x1="29.644" y1="38.982" x2="22.145" y2="28.473" gradientUnits="userSpaceOnUse"><stop stop-color="#FFD43B"/><stop offset="1" stop-color="#FFE873"/></linearGradient></defs></svg>
