<svg width="50" height="50" fill="none" xmlns="http://www.w3.org/2000/svg"><rect width="50" height="50" rx="6" fill="#F3FAFF"/><path fill-rule="evenodd" clip-rule="evenodd" d="M9.71 6h30.58A3.71 3.71 0 0144 9.71v30.58A3.71 3.71 0 0140.29 44H9.71A3.71 3.71 0 016 40.29V9.71A3.71 3.71 0 019.71 6zm19.813 33.954v-3.715a7.142 7.142 0 004.588 1.695c.472 0 .885-.043 1.237-.128.352-.085.647-.203.883-.354.236-.151.412-.33.528-.534.116-.205.175-.428.175-.668 0-.325-.093-.615-.28-.87a3 3 0 00-.76-.709 7.954 7.954 0 00-1.144-.627 39.308 39.308 0 00-1.429-.615c-1.3-.542-2.27-1.204-2.91-1.986-.638-.782-.958-1.726-.958-2.833 0-.867.174-1.612.523-2.235a4.44 4.44 0 011.423-1.538 6.384 6.384 0 012.085-.889 10.72 10.72 0 012.509-.284c.867 0 1.636.052 2.305.157.67.104 1.288.265 1.853.482v3.471a5.6 5.6 0 00-.912-.51 7.23 7.23 0 00-1.016-.366 7.775 7.775 0 00-2.021-.285c-.426 0-.813.04-1.162.122a2.983 2.983 0 00-.883.343c-.24.147-.425.323-.557.528a1.251 1.251 0 00-.198.69c0 .28.074.529.221.75.147.22.356.43.627.627s.6.39.988.58c.387.19.824.385 1.312.587.666.278 1.264.574 1.795.888.53.313.985.667 1.365 1.062s.67.846.87 1.353c.202.507.303 1.097.303 1.77 0 .93-.176 1.71-.529 2.34a4.29 4.29 0 01-1.434 1.533c-.604.39-1.307.671-2.108.841-.802.17-1.648.256-2.538.256-.914 0-1.783-.078-2.608-.232-.825-.155-1.54-.387-2.143-.697zm-1.48-12.87h-4.766V40.66H19.5V27.084h-4.743v-3.049h13.285v3.05z" fill="#3178C6"/></svg>
