<?xml version="1.0" standalone="no"?>
<!DOCTYPE svg PUBLIC "-//W3C//DTD SVG 20010904//EN"
 "http://www.w3.org/TR/2001/REC-SVG-20010904/DTD/svg10.dtd">
<svg version="1.0" xmlns="http://www.w3.org/2000/svg"
 width="1500.000000pt" height="1500.000000pt" viewBox="0 0 1500.000000 1500.000000"
 preserveAspectRatio="xMidYMid meet">
<metadata>
Created by potrace 1.11, written by Peter Selinger 2001-2013
</metadata>
<g transform="translate(0.000000,1500.000000) scale(0.100000,-0.100000)"
fill="#000000" stroke="none">
<path d="M1659 14872 c-110 -91 -401 -377 -511 -502 -85 -96 -179 -213 -262
-326 -36 -49 -70 -93 -74 -99 -20 -27 -153 -228 -187 -285 -115 -189 -263
-490 -330 -670 -156 -422 -219 -756 -218 -1160 0 -168 4 -240 18 -340 3 -19 8
-57 11 -85 3 -27 8 -52 9 -55 2 -3 6 -26 10 -50 35 -234 187 -645 335 -905 13
-22 34 -60 48 -85 14 -25 61 -99 106 -165 263 -391 385 -588 492 -796 27 -52
51 -96 54 -99 11 -11 136 -278 197 -420 45 -105 119 -291 148 -372 26 -74 126
-376 130 -395 2 -10 14 -52 25 -93 51 -175 72 -265 119 -495 27 -138 30 -154
36 -200 3 -22 8 -47 10 -55 3 -8 7 -32 10 -54 8 -68 15 -120 22 -161 6 -44 8
-55 18 -170 4 -44 9 -88 10 -97 26 -133 25 -882 -1 -1083 -2 -16 -6 -55 -9
-85 -3 -30 -8 -66 -10 -80 -2 -14 -7 -45 -10 -70 -12 -87 -45 -258 -71 -363
-9 -37 -15 -69 -13 -71 2 -2 56 -28 119 -59 63 -30 155 -78 203 -106 49 -28
90 -51 92 -51 6 0 240 -147 295 -185 25 -17 74 -51 110 -75 36 -25 67 -48 70
-51 3 -3 25 -19 50 -36 37 -25 159 -118 230 -176 35 -28 126 -103 136 -112 6
-5 40 -35 75 -65 119 -103 184 -164 374 -355 198 -198 260 -266 402 -437 47
-57 93 -113 103 -124 10 -12 51 -66 91 -120 41 -55 77 -101 80 -104 10 -9 213
-311 271 -405 67 -107 90 -148 164 -283 30 -56 59 -100 62 -98 4 2 34 7 67 11
87 11 101 13 142 19 21 3 56 9 78 12 22 3 47 7 55 9 8 2 38 7 65 11 28 3 59 8
70 10 11 3 36 7 55 10 157 26 499 100 670 145 63 17 122 32 130 34 8 2 76 22
150 44 455 135 850 308 1045 458 l50 39 0 919 c0 506 -3 948 -7 981 -40 352
-206 586 -479 679 -138 47 -250 64 -462 70 -203 6 -269 16 -371 59 -92 39
-166 132 -166 210 0 18 11 88 25 155 13 66 27 142 31 168 3 27 8 51 10 54 1 3
6 28 9 55 3 27 10 74 15 104 18 110 34 267 47 455 15 215 8 772 -12 930 -2 17
-7 59 -10 95 -7 82 -30 240 -51 350 -8 47 -17 99 -20 115 -3 17 -7 37 -10 45
-3 8 -8 26 -10 40 -9 50 -73 287 -100 370 -15 47 -28 87 -29 90 -6 19 -69 168
-91 216 l-24 50 -77 2 c-314 7 -666 47 -913 103 -25 6 -56 13 -70 15 -135 24
-582 165 -755 239 -476 203 -902 462 -1163 709 -43 41 -50 52 -37 59 37 20
489 165 567 181 35 7 55 12 151 35 49 12 101 23 115 26 29 5 61 12 102 20 130
26 411 67 555 81 39 4 84 8 100 10 223 25 894 25 1100 0 17 -2 62 -7 100 -11
66 -6 213 -29 262 -40 12 -3 33 -26 49 -52 16 -27 37 -61 46 -78 23 -37 147
-287 170 -340 73 -169 166 -453 213 -649 9 -38 19 -79 21 -90 2 -12 6 -32 9
-46 3 -14 7 -36 10 -50 3 -14 9 -47 15 -75 11 -55 16 -89 25 -150 3 -22 8 -51
10 -65 3 -14 7 -45 10 -70 3 -25 7 -61 10 -80 3 -19 7 -62 10 -95 3 -33 8 -78
10 -100 29 -263 33 -731 10 -1114 -3 -53 -8 -114 -10 -136 -2 -22 -7 -71 -10
-110 -3 -38 -8 -88 -11 -110 -2 -22 -7 -58 -10 -80 -2 -22 -6 -56 -9 -75 -3
-19 -7 -55 -10 -80 -7 -50 -30 -189 -45 -265 -5 -27 -11 -66 -14 -86 -3 -20
-8 -42 -10 -50 -3 -8 -7 -25 -10 -39 -3 -14 -8 -40 -12 -57 l-6 -33 48 -1
c362 -4 955 -150 1315 -324 65 -31 67 -31 135 0 30 14 56 25 58 25 2 0 25 10
52 22 27 12 54 23 59 24 6 1 42 14 80 29 62 24 232 80 274 91 9 2 46 12 83 23
63 18 294 69 348 76 14 1 45 6 70 9 88 13 116 16 225 22 61 4 112 8 114 10 2
2 -4 34 -13 71 -8 37 -18 82 -20 98 -3 17 -7 41 -11 55 -3 14 -14 79 -25 145
-26 160 -30 186 -34 226 -10 87 -18 152 -21 169 -2 10 -7 59 -10 107 -4 48 -8
100 -10 116 -27 224 -33 850 -11 1111 3 34 8 95 11 136 3 41 8 89 10 105 2 17
6 57 10 90 13 117 48 327 89 532 34 167 130 478 209 673 95 236 248 523 285
534 34 9 100 20 187 31 28 3 66 8 85 10 160 21 345 30 640 30 245 0 490 -9
545 -19 11 -2 58 -7 105 -10 71 -6 158 -17 330 -41 302 -43 711 -143 1025
-251 72 -25 137 -47 145 -50 46 -16 -356 -326 -620 -478 -36 -21 -72 -42 -80
-47 -56 -36 -440 -218 -555 -263 -179 -69 -461 -163 -545 -181 -8 -1 -35 -8
-60 -15 -25 -7 -52 -14 -61 -15 -9 -2 -59 -13 -110 -24 -52 -11 -107 -22 -124
-25 -79 -14 -225 -36 -270 -41 -27 -3 -63 -8 -80 -10 -70 -10 -274 -23 -418
-25 l-98 -2 -31 -67 c-76 -165 -183 -498 -212 -661 -2 -14 -7 -32 -10 -40 -3
-8 -7 -28 -10 -45 -2 -16 -9 -52 -14 -80 -6 -27 -13 -68 -16 -90 -4 -23 -8
-51 -11 -64 -2 -13 -7 -49 -11 -80 -3 -31 -8 -58 -9 -61 -2 -3 -6 -39 -10 -80
-4 -41 -9 -93 -11 -115 -26 -235 -26 -913 0 -1075 2 -14 7 -56 10 -94 4 -37
11 -100 17 -140 5 -39 12 -88 14 -109 2 -21 9 -63 14 -95 6 -31 13 -73 16 -92
3 -19 15 -78 27 -130 32 -151 34 -201 8 -255 -25 -52 -84 -103 -151 -133 -39
-17 -61 -24 -119 -37 -37 -9 -131 -16 -245 -20 -189 -6 -245 -12 -348 -36
-303 -71 -486 -246 -561 -534 -42 -165 -44 -212 -45 -1166 l-2 -905 23 -21
c40 -36 169 -118 270 -171 339 -176 929 -371 1450 -476 115 -23 462 -88 493
-92 22 -2 51 -6 65 -9 118 -18 143 -21 225 -31 28 -3 53 -8 57 -10 4 -3 19 18
33 46 56 110 240 420 282 475 4 6 31 44 58 85 141 211 285 398 484 630 100
116 143 162 331 350 209 210 278 274 465 431 93 78 284 227 345 269 19 13 37
27 40 30 6 6 35 26 160 111 195 133 427 268 618 360 59 28 109 53 111 55 2 2
-2 25 -9 51 -26 104 -69 322 -75 388 -3 28 -7 57 -10 65 -2 8 -7 47 -10 85 -4
39 -9 84 -10 100 -27 251 -26 789 0 1070 14 145 25 243 35 310 5 33 12 80 15
105 5 37 24 148 51 295 15 81 68 314 95 412 206 770 530 1479 977 2133 47 69
96 141 109 160 12 19 27 40 33 47 5 7 10 14 10 16 0 2 24 44 54 93 69 116 193
361 202 399 1 6 10 28 20 50 10 22 19 45 20 50 2 6 22 64 44 130 40 115 84
284 96 363 3 20 7 44 9 52 4 14 8 39 19 123 26 190 26 584 1 719 -2 9 -6 38
-10 65 -4 26 -9 59 -11 73 -2 14 -7 41 -10 60 -23 147 -135 521 -199 665 -7
17 -25 59 -40 95 -126 304 -395 739 -644 1045 -176 216 -431 478 -616 636
-149 127 -136 118 -165 106 -14 -5 -29 -11 -35 -13 -5 -1 -75 -26 -155 -54
-215 -76 -462 -151 -725 -221 -22 -6 -53 -14 -70 -19 -16 -5 -41 -11 -55 -14
-14 -3 -63 -15 -110 -27 -47 -11 -92 -22 -100 -24 -8 -2 -37 -9 -65 -15 -27
-6 -58 -13 -68 -15 -10 -2 -26 -6 -35 -9 -9 -3 -33 -8 -52 -11 -19 -3 -51 -10
-70 -15 -37 -9 -363 -76 -417 -85 -50 -8 -85 -14 -113 -20 -14 -3 -38 -8 -55
-10 -45 -8 -135 -24 -175 -30 -63 -11 -464 -74 -505 -80 -23 -3 -51 -7 -65
-10 -13 -2 -46 -7 -74 -10 -28 -2 -60 -7 -71 -9 -31 -6 -151 -22 -243 -32 -29
-3 -62 -7 -72 -9 -10 -2 -50 -7 -87 -10 -37 -4 -79 -8 -93 -10 -14 -2 -50 -6
-80 -10 -30 -3 -71 -7 -90 -10 -19 -3 -64 -8 -100 -11 -36 -3 -76 -7 -90 -9
-14 -1 -59 -5 -100 -9 -41 -4 -95 -9 -120 -11 -46 -5 -98 -10 -230 -20 -41 -3
-95 -7 -120 -10 -46 -4 -167 -13 -275 -20 -33 -3 -109 -7 -170 -10 -60 -4
-139 -8 -175 -11 -454 -29 -1122 -21 -1640 21 -25 2 -88 6 -140 10 -52 3 -115
8 -140 10 -25 2 -83 6 -130 10 -47 4 -92 8 -100 10 -8 1 -58 6 -110 10 -52 3
-108 8 -125 10 -16 1 -62 6 -101 9 -39 4 -80 8 -90 10 -10 2 -55 7 -99 11 -44
4 -87 8 -95 10 -8 1 -46 6 -85 10 -38 4 -77 8 -85 10 -8 1 -44 6 -80 10 -36 3
-76 8 -90 10 -14 2 -46 6 -72 9 -46 6 -88 11 -158 22 -19 2 -53 7 -75 9 -22 3
-51 7 -65 10 -14 2 -45 7 -70 10 -25 3 -56 8 -70 10 -14 2 -45 7 -70 10 -25 3
-97 15 -160 25 -63 10 -131 21 -150 24 -121 19 -482 86 -685 127 -185 38 -162
33 -270 59 -49 12 -110 26 -135 31 -76 16 -86 18 -248 60 -318 81 -763 218
-983 302 l-66 25 -104 -86z"/>
<path d="M7169 1826 c-2 -2 -51 -7 -109 -11 -58 -3 -121 -8 -140 -9 -83 -7
-187 -18 -210 -21 -14 -2 -50 -6 -80 -10 -30 -4 -66 -8 -80 -10 -14 -3 -70
-11 -125 -20 -55 -8 -113 -17 -130 -20 -16 -3 -57 -10 -90 -16 -92 -17 -104
-19 -180 -35 -38 -9 -81 -18 -95 -20 -14 -3 -59 -14 -101 -24 -42 -11 -87 -22
-100 -24 -13 -3 -24 -5 -24 -6 0 -1 -7 -3 -15 -5 -111 -22 -437 -121 -647
-196 -21 -8 -21 -9 23 -141 84 -248 170 -600 215 -871 15 -90 13 -88 139 -130
123 -41 434 -117 541 -131 60 -8 114 -17 129 -21 8 -2 38 -7 65 -10 28 -3 61
-8 75 -10 41 -7 160 -22 235 -30 66 -7 135 -14 220 -20 39 -3 95 -8 125 -11
307 -26 1163 -25 1390 1 38 4 168 15 240 20 49 3 137 13 185 20 17 3 46 7 65
9 104 13 143 19 220 32 47 7 103 16 125 19 22 4 48 8 58 11 10 3 30 7 45 9 15
2 65 13 112 24 47 11 97 22 110 25 25 5 50 12 150 40 30 8 87 28 126 43 l72
27 6 45 c7 59 14 99 32 191 9 41 18 89 21 105 22 125 156 600 196 696 8 20 12
41 8 46 -14 23 -421 149 -716 222 -160 39 -487 108 -600 125 -116 18 -322 46
-380 52 -38 3 -79 8 -90 10 -11 2 -60 7 -110 10 -49 3 -101 8 -115 11 -29 6
-785 14 -791 9z"/>
</g>
</svg>
