<svg width="500" height="500" fill="none" xmlns="http://www.w3.org/2000/svg"><rect class="outer" width="500" height="500" rx="250" fill="url(#paint0_linear)"/><path fill-rule="evenodd" clip-rule="evenodd" d="M110.824 99.037c43.894 16.79 111.073 21.81 139.176 22.222 28.103-.412 95.282-5.432 139.176-22.222 23.643 18.518 62.095 68.148 26.765 118.518-35.329 50.371-32.564 103.293-26.765 123.457-18.193 7.934-51.202 31.256-70.978 68.96-38.684-5.004-57.996-15.104-62.845-19.577v-40.741c0-19.753 10.706-23.457 24.088-23.457 10.706 0 12.49-4.938 12.044-7.407-8.564-38.519 0-68.724 5.353-79.012 37.471 0 64.682-18.107 73.603-27.161-31.047-11.852-62.897-9.877-74.941-7.407-20.341 31.605-15.613 80.658-10.706 101.234-13.918 0-28.995 5.762-34.794 8.642-5.799-2.88-20.876-8.642-34.794-8.642 4.907-20.576 9.635-69.629-10.706-101.234-12.044-2.47-43.894-4.445-74.941 7.407 8.921 9.054 36.132 27.161 73.603 27.161 5.353 10.288 13.917 40.493 5.353 79.012-.446 2.469 1.338 7.407 12.044 7.407 13.382 0 24.088 3.704 24.088 23.457v40.741c-4.849 4.473-24.161 14.573-62.845 19.577-19.776-37.704-52.785-61.026-70.978-68.96 5.799-20.164 8.564-73.086-26.765-123.457-35.33-50.37 3.122-100 26.765-118.518zm79.017 329.222c11.579-4.334 34.73-10.703 60.159-10.703 25.429 0 48.58 6.369 60.159 10.703a139.224 139.224 0 00-6.63 26.334C296.392 457.885 275.694 462 250 462c-25.694 0-46.392-4.115-53.529-7.407a139.224 139.224 0 00-6.63-26.334z" class="inner" fill="#fff"/><defs><linearGradient id="paint0_linear" x1="250" y1="0" x2="250" y2="500" gradientUnits="userSpaceOnUse"><stop stop-color="#1F293B"/><stop offset="1" stop-color="#0F172A"/></linearGradient></defs></svg>
