<svg xmlns="http://www.w3.org/2000/svg" width="150" height="150" fill="none"><path fill="#fff" fill-rule="evenodd" d="M17.647.427C35.735 7.347 63.42 9.415 75 9.585v79.874c-2.39-1.188-8.603-3.562-14.338-3.562 2.022-8.479 3.97-28.693-4.412-41.717-4.963-1.018-18.088-1.832-30.882 3.052 3.676 3.731 14.89 11.193 30.33 11.193 2.206 4.24 5.736 16.687 2.206 32.56-.183 1.017.552 3.052 4.964 3.052 5.514 0 9.926 1.527 9.926 9.667v16.788c-1.998 1.844-9.956 6.006-25.897 8.068-8.15-15.537-21.753-25.148-29.25-28.418 2.39-8.31 3.53-30.118-11.03-50.875C-7.94 28.51 7.905 8.058 17.648.427ZM75 89.46V9.585c11.58-.17 39.265-2.239 57.353-9.158 9.743 7.631 25.588 28.083 11.029 48.84-14.558 20.757-13.419 42.566-11.029 50.875-7.497 3.27-21.1 12.881-29.249 28.418-15.942-2.062-23.9-6.224-25.898-8.068v-16.788c0-8.14 4.412-9.667 9.926-9.667 4.412 0 5.147-2.035 4.964-3.052-3.53-15.873 0-28.32 2.206-32.56 15.441 0 26.654-7.462 30.33-11.193-12.794-4.884-25.919-4.07-30.882-3.052-8.382 13.024-6.434 33.238-4.412 41.717-5.735 0-11.948 2.374-14.338 3.562Zm-24.79 46.637c4.77-1.786 14.31-4.411 24.79-4.411V150c-10.588 0-19.118-1.696-22.059-3.053a57.342 57.342 0 0 0-2.732-10.851ZM75 131.685V150c10.588 0 19.118-1.696 22.059-3.053a57.342 57.342 0 0 1 2.732-10.851c-4.772-1.786-14.312-4.411-24.791-4.411Z" clip-rule="evenodd"/></svg>